<svg xmlns="http://www.w3.org/2000/svg" viewBox="0 0 64 64" role="img" aria-label="Ryan's Field">
  <defs>
    <linearGradient id="paper" x1="10" x2="54" y1="6" y2="58" gradientUnits="userSpaceOnUse">
      <stop stop-color="#fffaf0"/>
      <stop offset="1" stop-color="#efe6d5"/>
    </linearGradient>
    <filter id="soft-shadow" x="-20%" y="-20%" width="140%" height="140%">
      <feDropShadow dx="0" dy="3" stdDeviation="3" flood-color="#111414" flood-opacity=".18"/>
    </filter>
  </defs>
  <rect width="64" height="64" rx="16" fill="#fbf7ed"/>
  <rect x="9" y="8" width="46" height="48" rx="13" fill="url(#paper)" stroke="#0f5b56" stroke-width="2.4" filter="url(#soft-shadow)"/>
  <path d="M20 44V19h12.6c6.2 0 10.3 3.2 10.3 8.3 0 3.6-2.1 6.1-5.2 7.2L45 44h-7.4l-6.2-8.4h-5V44H20Zm6.4-13.5h5.7c2.7 0 4.3-1.2 4.3-3.2 0-2.1-1.6-3.2-4.4-3.2h-5.6v6.4Z" fill="#0f5b56"/>
  <path d="M17 49h30" stroke="#b65638" stroke-width="2.5" stroke-linecap="round"/>
  <circle cx="48.5" cy="15.5" r="3.4" fill="#b65638"/>
  <path d="M13 15.5h8.5M13 20.5h5.5" stroke="#d8cdb8" stroke-width="1.4" stroke-linecap="round"/>
</svg>
